<svg width="200" height="200" viewBox="0 0 200 200" fill="none" xmlns="http://www.w3.org/2000/svg">
  <!-- Background Circle -->
  <circle cx="100" cy="100" r="90" fill="url(#gradient)" />
  
  <!-- Brain/Neural Network Icon -->
  <path d="M100 40C77.9 40 60 57.9 60 80C60 88.4 62.8 96.2 67.5 102.5C62.8 108.8 60 116.6 60 125C60 147.1 77.9 165 100 165C122.1 165 140 147.1 140 125C140 116.6 137.2 108.8 132.5 102.5C137.2 96.2 140 88.4 140 80C140 57.9 122.1 40 100 40Z" fill="#10B981" stroke="#059669" stroke-width="3"/>
  
  <!-- Neural Nodes -->
  <circle cx="85" cy="75" r="6" fill="#ECFDF5" />
  <circle cx="115" cy="75" r="6" fill="#ECFDF5" />
  <circle cx="100" cy="95" r="6" fill="#ECFDF5" />
  <circle cx="85" cy="115" r="6" fill="#ECFDF5" />
  <circle cx="115" cy="115" r="6" fill="#ECFDF5" />
  
  <!-- Connecting Lines -->
  <line x1="85" y1="75" x2="100" y2="95" stroke="#059669" stroke-width="2" />
  <line x1="115" y1="75" x2="100" y2="95" stroke="#059669" stroke-width="2" />
  <line x1="100" y1="95" x2="85" y2="115" stroke="#059669" stroke-width="2" />
  <line x1="100" y1="95" x2="115" y2="115" stroke="#059669" stroke-width="2" />
  
  <!-- Market Chart Line -->
  <path d="M 50 140 L 70 130 L 90 145 L 110 120 L 130 135 L 150 125" stroke="#10B981" stroke-width="3" fill="none" stroke-linecap="round" stroke-linejoin="round"/>
  
  <!-- Gradient Definition -->
  <defs>
    <linearGradient id="gradient" x1="0%" y1="0%" x2="100%" y2="100%">
      <stop offset="0%" style="stop-color:#1a1a2e;stop-opacity:1" />
      <stop offset="100%" style="stop-color:#16213e;stop-opacity:1" />
    </linearGradient>
  </defs>
</svg>
